{"title":"Kung Fu Panda 2 *2011* [TS.XviD-miguel] [ENG]","uid":6438047,"size":1474222092,"categoryP":"video","categoryS":"movies","magnet":"?xt=urn:btih:2b9036e057e23d0f49a2a22aaba219e6d7f6f805&amp;dn=Kung+Fu+Panda+2+%2A2011%2A+%5BTS.XviD-miguel%5D+%5BENG%5D&amp;tr=udp%3A%2F%2Ftracker.openbittorrent.com%3A80&amp;tr=udp%3A%2F%2Fopen.demonii.com%3A1337&amp;tr=udp%3A%2F%2Ftracker.coppersurfer.tk%3A6969&amp;tr=udp%3A%2F%2Fexodus.desync.com%3A6969","seeders":1,"leechers":0,"uploader":"miguel1983","files":-1,"time":1306865441,"description":" &lt;a href=&quot;http://img845.imageshack.us/img845/9858/kungfupanda2posters.jpg&quot; rel=&quot;nofollow&quot; target=&quot;_NEW&quot;&gt;http://img845.imageshack.us/img845/9858/kungfupanda2posters.jpg&lt;/a&gt;\n\nCountry.......: USA\nGenre.........: Animation, Action, Adventure, Comedy, Family\nDate release..: 26.05.2011 [World]\nDirector......: Jennifer Yuh\nWriters.......: Jonathan Aibel, Glenn Berger\nDuration......: 81 min.\nMore..........: http://www.imdb.com/title/tt1302011\nTrailer.......: http://www.imdb.com/video/imdb/vi1639488793\nTrailer.......:\n\nPilot :\nPo joins forces with a group of new kung-fu masters to take on an old enemy with a deadly new weapon. \n\nCats :\nJack Black   \t ...  \tPo (voice)\nAngelina Jolie \t... \tTigress (voice)\nDustin Hoffman \t... \tShifu (voice)\nGary Oldman \t... \tShen (voice)\nJackie Chan \t... \tMonkey (voice)\nSeth Rogen \t... \tMantis (voice)\nLucy Liu \t... \tViper (voice)\nDavid Cross \t... \tCrane (voice)\nJames Hong \t... \tMr. Ping (voice)\nMichelle Yeoh \t... \tSoothsayer (voice)\nDanny McBride \t... \tWolf Boss (voice)\nDennis Haysbert \t... \tMaster Ox (voice)\nJean Claude Van Damme \t... \tMaster Croc (voice)\nVictor Garber \t... \tMaster Rhino (voice)\nMike Bell \t... \tGorilla Guard #1 (voice) (as Michael Patrick Bell) \n\nData Technical :\n!!! SAMPLE !!!\nAudio.....: English\nSubtitles.: None\nFormat                           : AVI\nFormat/Info                      : Audio Video Interleave\nFile size                        : 1.37 GiB\nDuration                         : 1h 20mn\nOverall bit rate                 : 2 421 Kbps\nWriting application              : VirtualDubMod 1.5.10.2 (build 2540/release)\nWriting library                  : VirtualDubMod build 2540/release\nVideo\nID                               : 0\nFormat                           : MPEG-4 Visual\nFormat profile                   : Advanced Simple@L5\nFormat settings, BVOP            : Yes\nFormat settings, QPel            : No\nFormat settings, GMC             : No warppoints\nFormat settings, Matrix          : Default (H.263)\nMuxing mode                      : Packed bitstream\nCodec ID                         : XVID\nCodec ID/Hint                    : XviD\nDuration                         : 1h 20mn\nBit rate                         : 2 220 Kbps\nWidth                            : 672 pixels\nHeight                           : 352 pixels\nDisplay aspect ratio             : 1.909\nFrame rate                       : 25.000 fps\nColor space                      : YUV\nChroma subsampling               : 4:2:0\nBit depth                        : 8 bits\nScan type                        : Progressive\nBits/(Pixel*Frame)               : 0.375\nStream size                      : 1.26 GiB (92%)\nWriting library                  : XviD 58\nAudio\nID                               : 1\nFormat                           : AC-3\nFormat/Info                      : Audio Coding 3\nMode extension                   : CM (complete main)\nCodec ID                         : 2000\nDuration                         : 1h 20mn\nBit rate mode                    : Constant\nBit rate                         : 192 Kbps\nChannel(s)                       : 2 channels\nChannel positions                : Front: L R\nSampling rate                    : 48.0 KHz\nBit depth                        : 16 bits\nStream size                      : 111 MiB (8%)\nAlignment                        : Split accross interleaves\nInterleave, duration             : 40 ms (1.00 video frame)\nInterleave, preload duration     : 500 ms\n\nScreen : &lt;a href=&quot;\nhttp://img196.imageshack.us/img196/4628/kungfupanda22011s1.jpg&quot; rel=&quot;nofollow&quot; target=&quot;_NEW&quot;&gt;\nhttp://img196.imageshack.us/img196/4628/kungfupanda22011s1.jpg&lt;/a&gt; &lt;a href=&quot;\nhttp://img580.imageshack.us/img580/6827/kungfupanda22011s2.jpg&quot; rel=&quot;nofollow&quot; target=&quot;_NEW&quot;&gt;\nhttp://img580.imageshack.us/img580/6827/kungfupanda22011s2.jpg&lt;/a&gt; &lt;a href=&quot;\nhttp://img846.imageshack.us/img846/9551/kungfupanda22011s3.jpg&quot; rel=&quot;nofollow&quot; target=&quot;_NEW&quot;&gt;\nhttp://img846.imageshack.us/img846/9551/kungfupanda22011s3.jpg&lt;/a&gt; &lt;a href=&quot;\nhttp://img844.imageshack.us/img844/7347/kungfupanda22011s4.jpg&quot; rel=&quot;nofollow&quot; target=&quot;_NEW&quot;&gt;\nhttp://img844.imageshack.us/img844/7347/kungfupanda22011s4.jpg&lt;/a&gt; &lt;a href=&quot;\nhttp://img715.imageshack.us/img715/7500/kungfupanda22011s5.jpg&quot; rel=&quot;nofollow&quot; target=&quot;_NEW&quot;&gt;\nhttp://img715.imageshack.us/img715/7500/kungfupanda22011s5.jpg&lt;/a&gt;","torrent":{"xt":"urn:btih:2b9036e057e23d0f49a2a22aaba219e6d7f6f805","amp;dn":"Kung+Fu+Panda+2+%2A2011%2A+%5BTS.XviD-miguel%5D+%5BENG%5D","amp;tr":["udp%3A%2F%2Ftracker.openbittorrent.com%3A80","udp%3A%2F%2Fopen.demonii.com%3A1337","udp%3A%2F%2Ftracker.coppersurfer.tk%3A6969","udp%3A%2F%2Fexodus.desync.com%3A6969"],"infoHash":"2b9036e057e23d0f49a2a22aaba219e6d7f6f805","infoHashBuffer":{"type":"Buffer","data":[43,144,54,224,87,226,61,15,73,162,162,42,171,162,25,230,215,246,248,5]},"announce":[],"urlList":[]}}